<?xml version="1.0" encoding="utf-8"?>
<!-- Generator: Adobe Illustrator 25.2.1, SVG Export Plug-In . SVG Version: 6.00 Build 0)  -->
<svg version="1.1" id="Layer_1" xmlns="http://www.w3.org/2000/svg" xmlns:xlink="http://www.w3.org/1999/xlink" x="0px" y="0px"
	 viewBox="0 0 512 512" style="enable-background:new 0 0 512 512;" xml:space="preserve">
<path d="M323.5,330.4c78.3,0,142-63.7,142-142s-63.7-142-142-142s-142,63.7-142,142C181.6,266.7,245.3,330.4,323.5,330.4z
	 M323.5,66.5c67.2,0,122,54.7,122,122s-54.7,122-122,122s-122-54.7-122-122C201.6,121.2,256.3,66.5,323.5,66.5z"/>
<path d="M322.1,379.9C426.8,379.9,512,294.7,512,190S426.8,0,322.1,0s-190,85.2-190,189.9c0,39.8,12.3,76.7,33.2,107.2l-31.1,31.1
	L130,324c-3.9-3.9-10.2-3.9-14.1,0l-101,101C5.3,434.6,0,447.4,0,461s5.3,26.4,14.9,36s22.5,15,36.1,15s26.4-5.3,36.1-14.9l101-101
	c1.9-1.9,2.9-4.4,2.9-7.1s-1.1-5.2-2.9-7.1l-4.2-4.2l31.1-31.1C245.4,367.6,282.3,379.9,322.1,379.9z M322.1,20
	C415.8,20,492,96.2,492,189.9s-76.2,169.9-169.9,169.9s-169.9-76.2-169.9-169.9S228.4,20,322.1,20z M72.9,482.9
	C67,488.8,59.3,492,51,492s-16.1-3.2-21.9-9.1c-12.1-12.1-12.1-31.7,0-43.8l93.9-93.9l4.2,4.2l0,0l39.6,39.6L72.9,482.9z
	 M169.6,363.6l-21.2-21.2l29.2-29.2c6.5,7.6,13.6,14.7,21.2,21.2L169.6,363.6z"/>
<path d="M289.3,162.2c5.5,0,10-4.5,10-10c0-6.9,2.9-13.5,8.1-18.1c5.2-4.7,11.9-6.8,19-6c11.1,1.2,20.1,10.2,21.3,21.3
	c1.1,9.8-3.7,19.2-12.3,24c-13.4,7.5-21.8,21.4-21.8,36.3V224c0,5.5,4.5,10,10,10s10-4.5,10-10v-14.3c0-7.6,4.4-14.8,11.6-18.8
	c15.6-8.7,24.4-25.8,22.4-43.6c-2.2-20.3-18.6-36.7-39-39c-12.6-1.4-25.1,2.6-34.5,11s-14.7,20.4-14.7,33
	C279.3,157.7,283.8,162.2,289.3,162.2z"/>
<path d="M323.5,252.9c-2.6,0-5.2,1.1-7.1,2.9s-2.9,4.4-2.9,7.1c0,2.6,1.1,5.2,2.9,7.1c1.9,1.9,4.4,2.9,7.1,2.9
	c2.6,0,5.2-1.1,7.1-2.9c1.9-1.9,2.9-4.4,2.9-7.1s-1.1-5.2-2.9-7.1C328.8,254,326.2,252.9,323.5,252.9z"/>
</svg>
