<?xml version="1.0" encoding="utf-8"?>
<!-- Generator: Adobe Illustrator 25.2.1, SVG Export Plug-In . SVG Version: 6.00 Build 0)  -->
<svg version="1.1" id="Layer_5" xmlns="http://www.w3.org/2000/svg" xmlns:xlink="http://www.w3.org/1999/xlink" x="0px" y="0px"
	 viewBox="0 0 512 512" style="enable-background:new 0 0 512 512;" xml:space="preserve">
<style type="text/css">
	.st0{fill:#9D8CB0;}
</style>
<path class="st0" d="M208,200c-48.5,0-88,39.5-88,88s39.5,88,88,88s88-39.5,88-88S256.5,200,208,200z M208,360
	c-39.7,0-72-32.3-72-72s32.3-72,72-72s72,32.3,72,72S247.7,360,208,360z"/>
<path class="st0" d="M376,312v38.9l58.4-38.9H448c22.1,0,40-17.9,40-40v-96c0-22.1-17.9-40-40-40h-42.8c-6.6-18.6-24.3-32-45.2-32
	s-38.6,13.4-45.2,32H272c-2.7,0-5.4,0.3-8,0.8V80c0-22.1-17.9-40-40-40h-42.8C174.6,21.4,156.9,8,136,8S97.4,21.4,90.8,40H48
	C25.9,40,8,57.9,8,80v96c0,22.1,17.9,40,40,40h64.2C97.1,236.1,88,261,88,288c0,24.1,7.2,46.4,19.4,65.3L96,364.7l-8-8l-69.4,69.4
	C11.8,432.9,8,442,8,451.7c0,20,16.3,36.3,36.3,36.3c9.7,0,18.8-3.8,25.7-10.6l69.4-69.4l-8-8l11.4-11.4
	c18.8,12.2,41.2,19.4,65.3,19.4c58,0,106.4-41.3,117.6-96H376z M408,152h40c13.2,0,24,10.8,24,24v96c0,13.2-10.8,24-24,24h-18.4
	L392,321.1V296h-64.4c0.2-2.7,0.4-5.3,0.4-8s-0.2-5.3-0.4-8H440v-16c0-33.7-20.9-62.5-50.4-74.3C400.8,180.9,408,167.3,408,152z
	 M383.4,264l-4.9-61.2c26.3,8,45.5,32.4,45.5,61.2H383.4z M362.2,200.1l5.1,63.9h-14.7l5.1-63.9c0.8,0,1.5-0.1,2.2-0.1
	S361.5,200.1,362.2,200.1z M336.6,264h-11c-2.9-14.2-8.4-27.5-15.9-39.4c8.2-10.5,19.3-18,31.8-21.8L336.6,264z M360,120
	c17.6,0,32,14.4,32,32s-14.4,32-32,32s-32-14.4-32-32S342.4,120,360,120z M312,152c0,15.3,7.2,28.9,18.4,37.7
	c-11.6,4.6-22,11.9-30.4,21.4c-13.6-16.3-31.5-28.8-51.9-36.1c0.5-12.8,11-23,23.9-23H312z M184,56h40c13.2,0,24,10.8,24,24v64.2
	c-8.3,6.3-14,15.6-15.4,26.3c-5.4-1.1-10.9-1.8-16.6-2.1V168c0-33.7-20.9-62.5-50.4-74.3C176.8,84.9,184,71.3,184,56z M72,168
	c0-28.9,19.2-53.3,45.5-61.2l-4.9,61.2H72z M133.8,104.1c0.7,0,1.5-0.1,2.2-0.1s1.5,0.1,2.2,0.1l5.1,63.9h-14.7L133.8,104.1z
	 M154.5,106.8c26.3,8,45.5,32.4,45.5,61.2h-40.6L154.5,106.8z M136,24c17.6,0,32,14.4,32,32s-14.4,32-32,32s-32-14.4-32-32
	S118.4,24,136,24z M24,176V80c0-13.2,10.8-24,24-24h40c0,15.3,7.2,28.9,18.4,37.7C76.9,105.5,56,134.3,56,168v16h92.4
	c-7.8,4.5-15.1,9.9-21.7,16H48C34.8,200,24,189.2,24,176z M58.6,466.1c-3.8,3.8-8.9,5.9-14.3,5.9c-11.2,0-20.3-9.1-20.3-20.3
	c0-5.4,2.1-10.5,5.9-14.3L88,379.3l28.7,28.7L58.6,466.1z M120,388.7L107.3,376l9.8-9.8c3.9,4.5,8.2,8.8,12.7,12.7L120,388.7z
	 M208,392c-57.3,0-104-46.7-104-104s46.7-104,104-104s104,46.7,104,104S265.3,392,208,392z"/>
<path class="st0" d="M480,360H336c-13.2,0-24,10.8-24,24v96c0,13.2,10.8,24,24,24h144c13.2,0,24-10.8,24-24v-96
	C504,370.8,493.2,360,480,360z M488,480c0,4.4-3.6,8-8,8H336c-4.4,0-8-3.6-8-8v-96c0-4.4,3.6-8,8-8h144c4.4,0,8,3.6,8,8V480z"/>
<path class="st0" d="M456,408h-16v48h-16v-32h-16v32h-16v-16h-16v16h-16v-64h-16v80h128v-16h-16V408z"/>
<path class="st0" d="M440,168h16v16h-16V168z"/>
<path class="st0" d="M440,200h16v16h-16V200z"/>
<path class="st0" d="M40,72h16v16H40V72z"/>
<path class="st0" d="M40,104h16v16H40V104z"/>
</svg>
