<?xml version="1.0" encoding="utf-8"?>
<!-- Generator: Adobe Illustrator 25.2.1, SVG Export Plug-In . SVG Version: 6.00 Build 0)  -->
<svg version="1.1" id="Layer_5" xmlns="http://www.w3.org/2000/svg" xmlns:xlink="http://www.w3.org/1999/xlink" x="0px" y="0px"
	 viewBox="0 0 512 512" style="enable-background:new 0 0 512 512;" xml:space="preserve">
<style type="text/css">
	.st0{fill:#9D8CB0;}
</style>
<g>
	<path class="st0" d="M320,256c0-35.3-28.7-64-64-64s-64,28.7-64,64s28.7,64,64,64S320,291.3,320,256z M256,304
		c-26.5,0-48-21.5-48-48s21.5-48,48-48s48,21.5,48,48S282.5,304,256,304z"/>
	<path class="st0" d="M471.8,248.8c-0.8-25.7-6.1-50.7-15.8-74.4v-20.7c0-5.4,2.6-10.4,6.9-13.1c20.7-13.3,33.1-36,33.1-60.6
		c0-20.5-8.8-40.1-24-53.7c-15.3-13.6-35.8-20.1-56.3-17.8c-30,3.4-54.9,26-61.7,55C323.7,48.1,290.1,40,256,40
		c-24.8,0-48.9,4.2-72,12.3V8h-48v128h-16V40H72v96H56V72H8v80h58.7C49.2,183.8,40,219.4,40,256c0,24.7,4.3,48.9,12.4,72
		c-2.8,4.7-4.4,10.1-4.4,16H32c-13.2,0-24,10.8-24,24v40h16c8.8,0,16,7.2,16,16s-7.2,16-16,16H8v40c0,13.2,10.8,24,24,24h96
		c13.2,0,24-10.8,24-24v-40h-16c-8.8,0-16-7.2-16-16s7.2-16,16-16h16v-40c0-13.2-10.8-24-24-24h-16c0-17.6-14.4-32-32-32
		c-5.3,0-10.3,1.4-14.7,3.8C60,299,57,281.7,56.4,264H152v21.7l14.6,5.2c0.5,1.3,1,2.5,1.6,3.8l-6.7,14l42,42l14-6.7
		c1.2,0.6,2.5,1.1,3.8,1.6l5.1,14.6H248v95.8c-26.6-1-52.2-7.2-76.3-18.4l-6.8,14.5c28.6,13.3,59.3,20.1,91.1,20.1
		c66.1,0,127.2-29.6,168-80.3v58.2l21.3,42.5c3.6,7.1,10.7,11.6,18.7,11.6s15.2-4.4,18.7-11.6l21.3-42.5V288
		C504,268.6,490.1,252.4,471.8,248.8L471.8,248.8z M40,136H24V88h16V136z M368.5,72.6c3.2-25.1,23.8-45.4,49-48.2
		c2.2-0.2,4.4-0.4,6.6-0.4c13.8,0,26.8,4.9,37.2,14.2C473.2,48.8,480,64.1,480,80c0,19.1-9.6,36.7-25.8,47.1
		c-8.5,5.4-13.6,14.7-14.1,24.9H432v-49.5c9.3-3.3,16-12.1,16-22.5c0-13.2-10.8-24-24-24s-24,10.8-24,24c0,10.4,6.7,19.2,16,22.5
		V152h-8.1c-0.6-10.3-5.7-19.5-14-24.8C375.4,115.4,365.7,94.5,368.5,72.6L368.5,72.6z M440,168v8c0,4.4-3.6,8-8,8h-16
		c-4.4,0-8-3.6-8-8v-8H440z M416,80c0-4.4,3.6-8,8-8s8,3.6,8,8s-3.6,8-8,8S416,84.4,416,80z M264,56.3c30.9,1.2,61.1,9.6,88,24.4
		c0.2,24.3,12.4,46.7,33.2,60c4.2,2.6,6.7,7.8,6.7,13.3v22c0,13.2,10.8,24,24,24h16c5.5,0,10.4-1.9,14.5-5c5.5,17.1,8.6,34.9,9.3,53
		H360v-21.7l-14.6-5.2c-0.5-1.3-1-2.5-1.6-3.8l6.7-14l-42-42l-14,6.7c-1.2-0.6-2.5-1.1-3.8-1.6l-5.1-14.6H264L264,56.3z M152,24h16
		v112h-16V24z M88,56h16v80H88V56z M64,360v-16c0-8.8,7.2-16,16-16s16,7.2,16,16v16h32c4.4,0,8,3.6,8,8v24c-17.6,0-32,14.4-32,32
		s14.4,32,32,32v24c0,4.4-3.6,8-8,8H32c-4.4,0-8-3.6-8-8v-24c17.6,0,32-14.4,32-32s-14.4-32-32-32v-24c0-4.4,3.6-8,8-8H64z
		 M152,226.3V248H56.3c1.4-34.1,11.3-67,29-96H184V69.4c20.5-7.9,41.9-12.4,64-13.2V152h-21.7l-5.2,14.6c-1.3,0.5-2.5,1-3.8,1.6
		l-14-6.7l-42,42l6.7,14c-0.6,1.2-1.1,2.5-1.6,3.8L152,226.3z M237.7,344l-3.9-11.1l-3.7-1.3c-3.1-1-6.2-2.3-9.2-3.8l-3.5-1.7
		l-10.7,5.1l-25.9-25.9l5.1-10.7l-1.7-3.5c-1.5-3-2.8-6.1-3.8-9.2l-1.3-3.7l-11.1-3.9v-36.7l11.1-3.9l1.3-3.7c1-3.1,2.3-6.2,3.8-9.2
		l1.7-3.5l-5.1-10.7l25.9-25.9l10.7,5.1l3.5-1.7c3-1.5,6.1-2.8,9.2-3.8l3.7-1.3l3.9-11.1h36.7l3.9,11.1l3.7,1.3
		c3.1,1,6.2,2.3,9.2,3.8l3.5,1.7l10.7-5.1l25.9,25.9l-5.1,10.7l1.7,3.5c1.5,3,2.8,6.1,3.8,9.2l1.3,3.7l11.1,3.9v36.7l-11.1,3.9
		l-1.3,3.7c-1,3.1-2.3,6.2-3.8,9.2l-1.7,3.5l5.1,10.7l-25.9,25.9l-10.7-5.1l-3.5,1.7c-3,1.5-6.1,2.8-9.2,3.8l-3.7,1.3l-3.9,11.1
		L237.7,344z M424,288v76.5c-35.6,55.1-94.8,88.7-160,91.3V360h21.7l5.2-14.6c1.3-0.5,2.5-1,3.8-1.6l14,6.7l42-42l-6.7-14
		c0.6-1.2,1.1-2.5,1.6-3.8l14.6-5.1V264h72.2C427.1,270.7,424,279,424,288L424,288z M440,312h16v128h-16V312z M468.4,485.3
		c-1.7,3.4-7.2,3.4-8.8,0L444.9,456h38.1L468.4,485.3z M488,440h-16V312h16V440z M488,296h-48v-8c0-13.2,10.8-24,24-24
		s24,10.8,24,24V296z"/>
	<path class="st0" d="M281.1,438.3c41.8-5.7,80.6-25.9,109.5-56.8l-11.7-10.9c-26.4,28.3-61.9,46.7-100,51.9L281.1,438.3z"/>
	<path class="st0" d="M415.4,348l-13.8-8c-3,5.2-6.4,10.4-10,15.3l12.9,9.5C408.4,359.4,412.1,353.7,415.4,348z"/>
</g>
</svg>
