<?xml version="1.0" encoding="utf-8"?>
<!-- Generator: Adobe Illustrator 25.2.1, SVG Export Plug-In . SVG Version: 6.00 Build 0)  -->
<svg version="1.1" id="Capa_1" xmlns="http://www.w3.org/2000/svg" xmlns:xlink="http://www.w3.org/1999/xlink" x="0px" y="0px"
	 viewBox="0 0 512 512" style="enable-background:new 0 0 512 512;" xml:space="preserve">
<style type="text/css">
	.st0{fill:#9D8CB0;}
</style>
<g>
	<g>
		<path class="st0" d="M511,196.8c-2.6-7.9-9.3-13.2-17.5-14l-156.5-14.5l-31-72.1c-1.6-3.8-6-5.6-9.9-3.9c-3.8,1.6-5.6,6.1-3.9,9.9
			l32.8,76.1c1.1,2.5,3.5,4.2,6.2,4.5l161,14.9c3.2,0.3,4.3,2.7,4.6,3.7c0.3,1,0.8,3.6-1.6,5.7L373.7,313.8c-2.1,1.8-3,4.6-2.4,7.3
			l35.5,157.7c0.7,3.1-1.2,4.9-2.1,5.6c-0.9,0.6-3.2,1.9-5.9,0.3l-139-82.5c-2.4-1.4-5.3-1.4-7.7,0l-139,82.5
			c-2.8,1.6-5.1,0.4-5.9-0.3s-2.8-2.4-2.1-5.6l18.3-81.4c0.9-4-1.6-8.1-5.7-9c-4-0.9-8.1,1.6-9,5.7l-18.3,81.4
			c-1.8,8.1,1.2,16.1,7.9,21c6.7,4.9,15.3,5.3,22.4,1L256,417.3l135.2,80.3c3.3,1.9,6.9,2.9,10.4,2.9c4.2,0,8.3-1.3,12-4
			c6.7-4.9,9.7-12.9,7.9-21l-34.6-153.4L505,218.4C511.3,212.9,513.5,204.7,511,196.8z"/>
	</g>
</g>
<g>
	<g>
		<path class="st0" d="M292.1,64.2l-17.4-40.3c-3.3-7.6-10.5-12.3-18.7-12.3c-8.3,0-15.5,4.7-18.7,12.3l-62.2,144.4L18.6,182.8
			c-8.2,0.8-15,6.1-17.5,14c-2.6,7.9-0.3,16.2,5.9,21.6l118.1,103.8l-9,39.9c-0.9,4,1.6,8.1,5.7,9c0.6,0.1,1.1,0.2,1.7,0.2
			c3.4,0,6.5-2.4,7.3-5.9l10-44.2c0.6-2.7-0.3-5.5-2.4-7.3L16.9,207.1c-2.4-2.1-1.9-4.7-1.6-5.7c0.3-1,1.4-3.4,4.6-3.7l161-14.9
			c2.7-0.3,5.1-2,6.2-4.5L251,29.8c1.3-2.9,3.9-3.3,5-3.3c1.1,0,3.7,0.3,5,3.3l17.4,40.3c1.6,3.8,6,5.6,9.9,3.9
			C292,72.4,293.7,68,292.1,64.2z"/>
	</g>
</g>
</svg>
